<?xml version="1.0" encoding="utf-8"?>
<!-- Generator: Adobe Illustrator 15.1.0, SVG Export Plug-In . SVG Version: 6.00 Build 0)  -->
<!DOCTYPE svg PUBLIC "-//W3C//DTD SVG 1.1//EN" "http://www.w3.org/Graphics/SVG/1.1/DTD/svg11.dtd">
<svg version="1.1" id="Layer_1" xmlns="http://www.w3.org/2000/svg" xmlns:xlink="http://www.w3.org/1999/xlink" x="0px" y="0px"
	 width="340px" height="74px" viewBox="0 0 340 74" enable-background="new 0 0 340 74" xml:space="preserve">
<g>
	<g>
		<path fill="#223D98" stroke="#2E3192" stroke-width="0.25" stroke-miterlimit="10" d="M8.823,55.365v0.321H3.778v-0.321h0.417
			c0.486,0,0.84-0.142,1.06-0.426c0.139-0.185,0.208-0.631,0.208-1.337v-7.606c0-0.596-0.037-0.989-0.112-1.181
			c-0.059-0.145-0.177-0.27-0.356-0.373c-0.255-0.14-0.521-0.209-0.799-0.209H3.778v-0.321h5.045v0.321H8.398
			c-0.48,0-0.831,0.143-1.051,0.426c-0.145,0.186-0.217,0.631-0.217,1.337v7.606c0,0.597,0.037,0.99,0.112,1.181
			c0.058,0.146,0.18,0.27,0.365,0.374c0.248,0.139,0.512,0.208,0.79,0.208H8.823z"/>
		<path fill="#223D98" stroke="#2E3192" stroke-width="0.25" stroke-miterlimit="10" d="M12.132,49.183
			c0.932-1.123,1.82-1.685,2.666-1.685c0.434,0,0.808,0.109,1.12,0.326s0.562,0.574,0.746,1.072c0.128,0.348,0.191,0.88,0.191,1.598
			v3.395c0,0.504,0.04,0.846,0.121,1.025c0.064,0.145,0.167,0.257,0.309,0.338c0.142,0.082,0.403,0.122,0.786,0.122v0.313h-3.934
			v-0.313h0.165c0.37,0,0.629-0.057,0.777-0.169c0.147-0.113,0.25-0.279,0.308-0.5c0.023-0.087,0.035-0.358,0.035-0.816v-3.256
			c0-0.724-0.095-1.249-0.282-1.576c-0.188-0.326-0.505-0.49-0.951-0.49c-0.688,0-1.375,0.376-2.058,1.129v4.193
			c0,0.539,0.032,0.872,0.096,0.999c0.081,0.168,0.192,0.291,0.334,0.369s0.43,0.117,0.864,0.117v0.313H9.492v-0.313h0.174
			c0.405,0,0.679-0.103,0.82-0.309c0.142-0.205,0.213-0.598,0.213-1.177v-2.952c0-0.955-0.021-1.536-0.065-1.745
			c-0.043-0.208-0.109-0.35-0.199-0.425s-0.21-0.113-0.36-0.113c-0.162,0-0.356,0.043-0.582,0.13l-0.13-0.313l2.396-0.973h0.373
			V49.183z"/>
		<path fill="#223D98" stroke="#2E3192" stroke-width="0.25" stroke-miterlimit="10" d="M24.323,54.792
			c-0.388,0.405-0.768,0.696-1.138,0.873s-0.77,0.265-1.198,0.265c-0.868,0-1.627-0.363-2.275-1.09
			c-0.647-0.727-0.972-1.66-0.972-2.8c0-1.141,0.358-2.185,1.076-3.131s1.642-1.419,2.77-1.419c0.701,0,1.279,0.223,1.737,0.668
			v-1.467c0-0.909-0.021-1.468-0.065-1.676c-0.043-0.209-0.111-0.351-0.204-0.426s-0.208-0.113-0.348-0.113
			c-0.15,0-0.35,0.047-0.599,0.14l-0.113-0.305l2.371-0.972h0.391v9.194c0,0.933,0.021,1.501,0.064,1.707
			c0.044,0.205,0.113,0.349,0.209,0.43s0.207,0.121,0.334,0.121c0.156,0,0.365-0.049,0.625-0.147l0.096,0.304l-2.361,0.981h-0.399
			V54.792z M24.323,54.185v-4.099c-0.035-0.394-0.14-0.752-0.313-1.076c-0.174-0.324-0.404-0.569-0.69-0.734
			c-0.287-0.165-0.566-0.247-0.838-0.247c-0.51,0-0.964,0.229-1.363,0.686c-0.527,0.603-0.79,1.482-0.79,2.64
			c0,1.17,0.254,2.065,0.764,2.688s1.077,0.934,1.702,0.934C23.321,54.975,23.831,54.711,24.323,54.185z"/>
		<path fill="#223D98" stroke="#2E3192" stroke-width="0.25" stroke-miterlimit="10" d="M30.34,47.498v6.391
			c0,0.498,0.036,0.83,0.108,0.995c0.072,0.164,0.18,0.287,0.321,0.368c0.142,0.082,0.4,0.122,0.777,0.122v0.313h-3.864v-0.313
			c0.388,0,0.648-0.038,0.781-0.113s0.239-0.199,0.317-0.373s0.117-0.507,0.117-0.999v-3.064c0-0.862-0.026-1.421-0.078-1.676
			c-0.041-0.186-0.104-0.314-0.191-0.387s-0.205-0.108-0.355-0.108c-0.162,0-0.359,0.043-0.591,0.13l-0.122-0.313l2.396-0.973H30.34
			z M29.619,43.34c0.243,0,0.45,0.085,0.62,0.256c0.171,0.171,0.257,0.378,0.257,0.621s-0.086,0.451-0.257,0.625
			c-0.17,0.174-0.377,0.26-0.62,0.26s-0.452-0.086-0.625-0.26c-0.174-0.174-0.261-0.382-0.261-0.625s0.085-0.45,0.256-0.621
			S29.37,43.34,29.619,43.34z"/>
		<path fill="#223D98" stroke="#2E3192" stroke-width="0.25" stroke-miterlimit="10" d="M37.043,54.54
			c-0.816,0.631-1.329,0.996-1.537,1.095c-0.313,0.145-0.646,0.217-0.999,0.217c-0.55,0-1.003-0.188-1.358-0.564
			c-0.356-0.376-0.534-0.871-0.534-1.484c0-0.388,0.087-0.724,0.261-1.008c0.237-0.394,0.649-0.764,1.237-1.111
			c0.587-0.348,1.564-0.77,2.931-1.268v-0.313c0-0.793-0.126-1.337-0.378-1.633c-0.252-0.295-0.618-0.442-1.099-0.442
			c-0.364,0-0.654,0.099-0.868,0.295c-0.22,0.197-0.33,0.423-0.33,0.678l0.018,0.503c0,0.267-0.068,0.473-0.204,0.617
			s-0.314,0.217-0.534,0.217c-0.214,0-0.39-0.075-0.525-0.226s-0.204-0.356-0.204-0.617c0-0.497,0.255-0.955,0.765-1.371
			c0.509-0.417,1.224-0.626,2.145-0.626c0.706,0,1.285,0.119,1.736,0.356c0.342,0.18,0.594,0.46,0.756,0.842
			c0.104,0.249,0.156,0.759,0.156,1.528v2.701c0,0.758,0.014,1.223,0.043,1.394s0.077,0.285,0.144,0.343s0.144,0.087,0.23,0.087
			c0.092,0,0.173-0.021,0.242-0.062c0.122-0.074,0.356-0.286,0.704-0.634v0.486c-0.648,0.868-1.268,1.303-1.858,1.303
			c-0.284,0-0.51-0.099-0.678-0.295C37.135,55.351,37.048,55.015,37.043,54.54z M37.043,53.976v-3.03
			c-0.874,0.348-1.438,0.594-1.693,0.738c-0.457,0.255-0.784,0.521-0.981,0.799c-0.196,0.278-0.295,0.582-0.295,0.912
			c0,0.416,0.124,0.763,0.373,1.037c0.249,0.275,0.535,0.413,0.859,0.413C35.746,54.845,36.325,54.555,37.043,53.976z"/>
		<path fill="#223D98" stroke="#2E3192" stroke-width="0.25" stroke-miterlimit="10" d="M42.748,49.183
			c0.932-1.123,1.82-1.685,2.666-1.685c0.434,0,0.808,0.109,1.12,0.326s0.562,0.574,0.746,1.072c0.128,0.348,0.191,0.88,0.191,1.598
			v3.395c0,0.504,0.04,0.846,0.121,1.025c0.064,0.145,0.167,0.257,0.309,0.338c0.142,0.082,0.403,0.122,0.786,0.122v0.313h-3.934
			v-0.313h0.165c0.37,0,0.629-0.057,0.777-0.169c0.147-0.113,0.25-0.279,0.308-0.5c0.023-0.087,0.035-0.358,0.035-0.816v-3.256
			c0-0.724-0.095-1.249-0.282-1.576c-0.188-0.326-0.505-0.49-0.951-0.49c-0.688,0-1.375,0.376-2.058,1.129v4.193
			c0,0.539,0.032,0.872,0.096,0.999c0.081,0.168,0.192,0.291,0.334,0.369s0.43,0.117,0.864,0.117v0.313h-3.934v-0.313h0.174
			c0.405,0,0.679-0.103,0.82-0.309c0.142-0.205,0.213-0.598,0.213-1.177v-2.952c0-0.955-0.021-1.536-0.065-1.745
			c-0.043-0.208-0.109-0.35-0.199-0.425s-0.21-0.113-0.36-0.113c-0.162,0-0.356,0.043-0.582,0.13l-0.13-0.313l2.396-0.973h0.373
			V49.183z"/>
		<path fill="#223D98" stroke="#2E3192" stroke-width="0.25" stroke-miterlimit="10" d="M58.698,55.365v0.321h-5.045v-0.321h0.417
			c0.486,0,0.84-0.142,1.06-0.426c0.139-0.185,0.208-0.631,0.208-1.337v-7.606c0-0.596-0.037-0.989-0.112-1.181
			c-0.059-0.145-0.177-0.27-0.356-0.373c-0.255-0.14-0.521-0.209-0.799-0.209h-0.417v-0.321h5.045v0.321h-0.425
			c-0.48,0-0.831,0.143-1.051,0.426c-0.145,0.186-0.217,0.631-0.217,1.337v7.606c0,0.597,0.037,0.99,0.112,1.181
			c0.058,0.146,0.18,0.27,0.365,0.374c0.248,0.139,0.512,0.208,0.79,0.208H58.698z"/>
		<path fill="#223D98" stroke="#2E3192" stroke-width="0.25" stroke-miterlimit="10" d="M62.007,49.183
			c0.932-1.123,1.82-1.685,2.666-1.685c0.434,0,0.808,0.109,1.12,0.326s0.562,0.574,0.746,1.072c0.128,0.348,0.191,0.88,0.191,1.598
			v3.395c0,0.504,0.04,0.846,0.121,1.025c0.064,0.145,0.167,0.257,0.309,0.338c0.142,0.082,0.403,0.122,0.786,0.122v0.313h-3.934
			v-0.313h0.165c0.37,0,0.629-0.057,0.777-0.169c0.147-0.113,0.25-0.279,0.308-0.5c0.023-0.087,0.035-0.358,0.035-0.816v-3.256
			c0-0.724-0.095-1.249-0.282-1.576c-0.188-0.326-0.505-0.49-0.951-0.49c-0.688,0-1.375,0.376-2.058,1.129v4.193
			c0,0.539,0.032,0.872,0.096,0.999c0.081,0.168,0.192,0.291,0.334,0.369s0.43,0.117,0.864,0.117v0.313h-3.934v-0.313h0.174
			c0.405,0,0.679-0.103,0.82-0.309c0.142-0.205,0.213-0.598,0.213-1.177v-2.952c0-0.955-0.021-1.536-0.065-1.745
			c-0.043-0.208-0.109-0.35-0.199-0.425s-0.21-0.113-0.36-0.113c-0.162,0-0.356,0.043-0.582,0.13l-0.13-0.313l2.396-0.973h0.373
			V49.183z"/>
		<path fill="#223D98" stroke="#2E3192" stroke-width="0.25" stroke-miterlimit="10" d="M73.72,47.498v2.71h-0.287
			c-0.22-0.852-0.502-1.43-0.847-1.737c-0.344-0.307-0.782-0.46-1.315-0.46c-0.405,0-0.732,0.107-0.98,0.321
			c-0.249,0.214-0.374,0.451-0.374,0.712c0,0.324,0.093,0.603,0.278,0.834c0.179,0.237,0.544,0.489,1.094,0.755l1.268,0.617
			c1.176,0.572,1.763,1.328,1.763,2.266c0,0.724-0.273,1.307-0.82,1.75c-0.547,0.442-1.159,0.664-1.837,0.664
			c-0.485,0-1.041-0.087-1.667-0.261c-0.19-0.058-0.347-0.087-0.469-0.087c-0.133,0-0.237,0.075-0.313,0.226h-0.286v-2.839h0.286
			c0.162,0.811,0.472,1.421,0.929,1.832c0.458,0.411,0.97,0.616,1.537,0.616c0.399,0,0.726-0.117,0.978-0.352
			c0.251-0.234,0.377-0.517,0.377-0.847c0-0.399-0.14-0.734-0.421-1.007s-0.841-0.616-1.68-1.033c-0.84-0.417-1.39-0.793-1.65-1.129
			c-0.26-0.33-0.391-0.747-0.391-1.25c0-0.654,0.225-1.201,0.673-1.642c0.449-0.439,1.029-0.66,1.741-0.66
			c0.313,0,0.691,0.067,1.138,0.2c0.295,0.087,0.491,0.13,0.59,0.13c0.093,0,0.165-0.02,0.218-0.061
			c0.052-0.04,0.112-0.13,0.182-0.27H73.72z"/>
		<path fill="#223D98" stroke="#2E3192" stroke-width="0.25" stroke-miterlimit="10" d="M77.81,45.119v2.614h1.858v0.607H77.81
			v5.157c0,0.516,0.074,0.863,0.222,1.042c0.147,0.18,0.337,0.27,0.568,0.27c0.191,0,0.376-0.06,0.556-0.178
			c0.18-0.119,0.318-0.294,0.417-0.525h0.339c-0.203,0.567-0.489,0.994-0.859,1.28c-0.371,0.287-0.753,0.43-1.146,0.43
			c-0.267,0-0.527-0.073-0.781-0.221c-0.255-0.148-0.443-0.359-0.564-0.634c-0.122-0.275-0.183-0.699-0.183-1.272v-5.349h-1.259
			v-0.286c0.318-0.128,0.644-0.344,0.977-0.647s0.63-0.664,0.89-1.081c0.134-0.22,0.318-0.622,0.557-1.207H77.81z"/>
		<path fill="#223D98" stroke="#2E3192" stroke-width="0.25" stroke-miterlimit="10" d="M83.185,47.498v6.391
			c0,0.498,0.036,0.83,0.108,0.995c0.072,0.164,0.18,0.287,0.321,0.368c0.142,0.082,0.4,0.122,0.777,0.122v0.313h-3.864v-0.313
			c0.388,0,0.648-0.038,0.781-0.113s0.239-0.199,0.317-0.373s0.117-0.507,0.117-0.999v-3.064c0-0.862-0.026-1.421-0.078-1.676
			c-0.041-0.186-0.104-0.314-0.191-0.387s-0.205-0.108-0.355-0.108c-0.162,0-0.359,0.043-0.591,0.13l-0.122-0.313l2.396-0.973
			H83.185z M82.464,43.34c0.243,0,0.45,0.085,0.62,0.256c0.171,0.171,0.257,0.378,0.257,0.621s-0.086,0.451-0.257,0.625
			c-0.17,0.174-0.377,0.26-0.62,0.26s-0.452-0.086-0.625-0.26c-0.174-0.174-0.261-0.382-0.261-0.625s0.085-0.45,0.256-0.621
			S82.215,43.34,82.464,43.34z"/>
		<path fill="#223D98" stroke="#2E3192" stroke-width="0.25" stroke-miterlimit="10" d="M87.69,45.119v2.614h1.858v0.607H87.69
			v5.157c0,0.516,0.074,0.863,0.222,1.042c0.147,0.18,0.337,0.27,0.568,0.27c0.191,0,0.376-0.06,0.556-0.178
			c0.18-0.119,0.318-0.294,0.417-0.525h0.339c-0.203,0.567-0.489,0.994-0.859,1.28c-0.371,0.287-0.753,0.43-1.146,0.43
			c-0.267,0-0.527-0.073-0.781-0.221c-0.255-0.148-0.443-0.359-0.564-0.634c-0.122-0.275-0.183-0.699-0.183-1.272v-5.349h-1.259
			v-0.286c0.318-0.128,0.644-0.344,0.977-0.647s0.63-0.664,0.89-1.081c0.134-0.22,0.318-0.622,0.557-1.207H87.69z"/>
		<path fill="#223D98" stroke="#2E3192" stroke-width="0.25" stroke-miterlimit="10" d="M97.294,47.733v4.818
			c0,0.921,0.021,1.483,0.064,1.689c0.044,0.205,0.113,0.349,0.209,0.43s0.207,0.121,0.334,0.121c0.18,0,0.382-0.049,0.608-0.147
			l0.121,0.304l-2.379,0.981h-0.391v-1.685c-0.684,0.741-1.204,1.207-1.563,1.398c-0.358,0.19-0.737,0.286-1.137,0.286
			c-0.446,0-0.833-0.129-1.159-0.387c-0.327-0.257-0.555-0.589-0.682-0.994c-0.128-0.405-0.191-0.978-0.191-1.719v-3.552
			c0-0.376-0.041-0.637-0.122-0.781s-0.201-0.256-0.36-0.334s-0.446-0.114-0.863-0.108v-0.321h2.787v5.322
			c0,0.741,0.129,1.228,0.387,1.459c0.257,0.231,0.568,0.347,0.933,0.347c0.249,0,0.531-0.078,0.847-0.234s0.69-0.454,1.125-0.895
			v-4.506c0-0.451-0.083-0.757-0.248-0.916s-0.508-0.245-1.028-0.256v-0.321H97.294z"/>
		<path fill="#223D98" stroke="#2E3192" stroke-width="0.25" stroke-miterlimit="10" d="M101.522,45.119v2.614h1.858v0.607h-1.858
			v5.157c0,0.516,0.074,0.863,0.222,1.042c0.147,0.18,0.337,0.27,0.568,0.27c0.191,0,0.376-0.06,0.556-0.178
			c0.18-0.119,0.318-0.294,0.417-0.525h0.339c-0.203,0.567-0.489,0.994-0.859,1.28c-0.371,0.287-0.753,0.43-1.146,0.43
			c-0.267,0-0.527-0.073-0.781-0.221c-0.255-0.148-0.443-0.359-0.564-0.634c-0.122-0.275-0.183-0.699-0.183-1.272v-5.349h-1.259
			v-0.286c0.318-0.128,0.644-0.344,0.977-0.647s0.63-0.664,0.89-1.081c0.134-0.22,0.318-0.622,0.557-1.207H101.522z"/>
		<path fill="#223D98" stroke="#2E3192" stroke-width="0.25" stroke-miterlimit="10" d="M105.49,50.729
			c-0.006,1.181,0.281,2.107,0.86,2.778c0.578,0.672,1.259,1.008,2.04,1.008c0.521,0,0.974-0.144,1.359-0.43
			c0.385-0.287,0.707-0.777,0.968-1.473l0.27,0.174c-0.122,0.793-0.476,1.516-1.06,2.167c-0.585,0.651-1.317,0.977-2.197,0.977
			c-0.955,0-1.772-0.372-2.453-1.116c-0.68-0.743-1.02-1.743-1.02-3c0-1.359,0.349-2.421,1.046-3.182
			c0.697-0.762,1.573-1.142,2.627-1.142c0.892,0,1.623,0.293,2.196,0.881s0.86,1.373,0.86,2.357H105.49z M105.49,50.225h3.682
			c-0.028-0.509-0.09-0.868-0.182-1.076c-0.146-0.324-0.36-0.579-0.647-0.765c-0.286-0.185-0.586-0.277-0.898-0.277
			c-0.48,0-0.91,0.187-1.29,0.56C105.775,49.04,105.554,49.56,105.49,50.225z"/>
		<path fill="#223D98" stroke="#2E3192" stroke-width="0.25" stroke-miterlimit="10" d="M120.382,47.498
			c1.204,0,2.171,0.458,2.9,1.372c0.619,0.782,0.929,1.679,0.929,2.692c0,0.712-0.17,1.433-0.512,2.162
			c-0.342,0.729-0.812,1.279-1.411,1.649c-0.599,0.37-1.267,0.556-2.001,0.556c-1.198,0-2.151-0.478-2.857-1.433
			c-0.596-0.805-0.894-1.708-0.894-2.709c0-0.729,0.181-1.455,0.542-2.175c0.362-0.721,0.838-1.254,1.429-1.598
			C119.097,47.671,119.723,47.498,120.382,47.498z M120.113,48.063c-0.308,0-0.615,0.092-0.925,0.273
			c-0.31,0.183-0.561,0.503-0.751,0.96c-0.191,0.457-0.287,1.045-0.287,1.763c0,1.158,0.23,2.156,0.69,2.995
			c0.46,0.84,1.066,1.26,1.819,1.26c0.562,0,1.024-0.231,1.389-0.695c0.365-0.463,0.548-1.259,0.548-2.388
			c0-1.412-0.305-2.523-0.912-3.334C121.273,48.341,120.75,48.063,120.113,48.063z"/>
		<path fill="#223D98" stroke="#2E3192" stroke-width="0.25" stroke-miterlimit="10" d="M128.491,48.358v5.227
			c0,0.741,0.081,1.21,0.243,1.407c0.214,0.255,0.501,0.382,0.859,0.382h0.721v0.313h-4.749v-0.313h0.355
			c0.231,0,0.443-0.058,0.634-0.174c0.191-0.115,0.323-0.271,0.396-0.469c0.072-0.196,0.108-0.579,0.108-1.146v-5.227h-1.546v-0.625
			h1.546v-0.521c0-0.793,0.127-1.465,0.382-2.015s0.645-0.994,1.168-1.333c0.524-0.338,1.113-0.508,1.768-0.508
			c0.607,0,1.166,0.197,1.676,0.591c0.335,0.261,0.503,0.553,0.503,0.877c0,0.174-0.075,0.337-0.226,0.49s-0.313,0.23-0.486,0.23
			c-0.133,0-0.273-0.048-0.421-0.144s-0.329-0.301-0.543-0.616s-0.411-0.528-0.59-0.639c-0.18-0.109-0.38-0.165-0.6-0.165
			c-0.267,0-0.492,0.071-0.677,0.213c-0.186,0.143-0.318,0.362-0.399,0.66s-0.122,1.066-0.122,2.306v0.573h2.049v0.625H128.491z"/>
		<path fill="#223D98" stroke="#2E3192" stroke-width="0.25" stroke-miterlimit="10" d="M142.472,55.687l-4.55-9.907v7.867
			c0,0.724,0.078,1.175,0.234,1.354c0.214,0.243,0.553,0.364,1.016,0.364h0.417v0.321h-4.099v-0.321h0.417
			c0.498,0,0.851-0.15,1.06-0.451c0.127-0.186,0.19-0.608,0.19-1.268v-7.693c0-0.521-0.058-0.897-0.173-1.129
			c-0.081-0.168-0.23-0.309-0.447-0.421c-0.218-0.113-0.566-0.17-1.047-0.17v-0.321h3.335l4.271,9.213l4.203-9.213h3.334v0.321
			h-0.408c-0.504,0-0.859,0.151-1.068,0.452c-0.127,0.185-0.19,0.607-0.19,1.268v7.693c0,0.724,0.081,1.175,0.243,1.354
			c0.214,0.243,0.553,0.364,1.016,0.364h0.408v0.321h-5.002v-0.321h0.417c0.504,0,0.856-0.15,1.06-0.451
			c0.127-0.186,0.191-0.608,0.191-1.268v-7.867l-4.542,9.907H142.472z"/>
		<path fill="#223D98" stroke="#2E3192" stroke-width="0.25" stroke-miterlimit="10" d="M156.069,54.54
			c-0.816,0.631-1.329,0.996-1.537,1.095c-0.313,0.145-0.646,0.217-0.999,0.217c-0.55,0-1.003-0.188-1.358-0.564
			c-0.356-0.376-0.534-0.871-0.534-1.484c0-0.388,0.087-0.724,0.261-1.008c0.237-0.394,0.649-0.764,1.237-1.111
			c0.587-0.348,1.564-0.77,2.931-1.268v-0.313c0-0.793-0.126-1.337-0.378-1.633c-0.252-0.295-0.618-0.442-1.099-0.442
			c-0.364,0-0.654,0.099-0.868,0.295c-0.22,0.197-0.33,0.423-0.33,0.678l0.018,0.503c0,0.267-0.068,0.473-0.204,0.617
			s-0.314,0.217-0.534,0.217c-0.214,0-0.39-0.075-0.525-0.226s-0.204-0.356-0.204-0.617c0-0.497,0.255-0.955,0.765-1.371
			c0.509-0.417,1.224-0.626,2.145-0.626c0.706,0,1.285,0.119,1.736,0.356c0.342,0.18,0.594,0.46,0.756,0.842
			c0.104,0.249,0.156,0.759,0.156,1.528v2.701c0,0.758,0.014,1.223,0.043,1.394s0.077,0.285,0.144,0.343s0.144,0.087,0.23,0.087
			c0.092,0,0.173-0.021,0.242-0.062c0.122-0.074,0.356-0.286,0.704-0.634v0.486c-0.648,0.868-1.268,1.303-1.858,1.303
			c-0.284,0-0.51-0.099-0.678-0.295C156.161,55.351,156.074,55.015,156.069,54.54z M156.069,53.976v-3.03
			c-0.874,0.348-1.438,0.594-1.693,0.738c-0.457,0.255-0.784,0.521-0.981,0.799c-0.196,0.278-0.295,0.582-0.295,0.912
			c0,0.416,0.124,0.763,0.373,1.037c0.249,0.275,0.535,0.413,0.859,0.413C154.772,54.845,155.352,54.555,156.069,53.976z"/>
		<path fill="#223D98" stroke="#2E3192" stroke-width="0.25" stroke-miterlimit="10" d="M161.773,49.183
			c0.932-1.123,1.82-1.685,2.666-1.685c0.434,0,0.808,0.109,1.12,0.326s0.562,0.574,0.746,1.072c0.128,0.348,0.191,0.88,0.191,1.598
			v3.395c0,0.504,0.04,0.846,0.121,1.025c0.064,0.145,0.167,0.257,0.309,0.338c0.142,0.082,0.403,0.122,0.786,0.122v0.313h-3.934
			v-0.313h0.165c0.37,0,0.629-0.057,0.777-0.169c0.147-0.113,0.25-0.279,0.308-0.5c0.023-0.087,0.035-0.358,0.035-0.816v-3.256
			c0-0.724-0.095-1.249-0.282-1.576c-0.188-0.326-0.505-0.49-0.951-0.49c-0.688,0-1.375,0.376-2.058,1.129v4.193
			c0,0.539,0.032,0.872,0.096,0.999c0.081,0.168,0.192,0.291,0.334,0.369s0.43,0.117,0.864,0.117v0.313h-3.934v-0.313h0.174
			c0.405,0,0.679-0.103,0.82-0.309c0.142-0.205,0.213-0.598,0.213-1.177v-2.952c0-0.955-0.021-1.536-0.065-1.745
			c-0.043-0.208-0.109-0.35-0.199-0.425s-0.21-0.113-0.36-0.113c-0.162,0-0.356,0.043-0.582,0.13l-0.13-0.313l2.396-0.973h0.373
			V49.183z"/>
		<path fill="#223D98" stroke="#2E3192" stroke-width="0.25" stroke-miterlimit="10" d="M172.854,54.54
			c-0.816,0.631-1.329,0.996-1.537,1.095c-0.313,0.145-0.646,0.217-0.999,0.217c-0.55,0-1.003-0.188-1.358-0.564
			c-0.356-0.376-0.534-0.871-0.534-1.484c0-0.388,0.087-0.724,0.261-1.008c0.237-0.394,0.649-0.764,1.237-1.111
			c0.587-0.348,1.564-0.77,2.931-1.268v-0.313c0-0.793-0.126-1.337-0.378-1.633c-0.252-0.295-0.618-0.442-1.099-0.442
			c-0.364,0-0.654,0.099-0.868,0.295c-0.22,0.197-0.33,0.423-0.33,0.678l0.018,0.503c0,0.267-0.068,0.473-0.204,0.617
			s-0.314,0.217-0.534,0.217c-0.214,0-0.39-0.075-0.525-0.226s-0.204-0.356-0.204-0.617c0-0.497,0.255-0.955,0.765-1.371
			c0.509-0.417,1.224-0.626,2.145-0.626c0.706,0,1.285,0.119,1.736,0.356c0.342,0.18,0.594,0.46,0.756,0.842
			c0.104,0.249,0.156,0.759,0.156,1.528v2.701c0,0.758,0.014,1.223,0.043,1.394s0.077,0.285,0.144,0.343s0.144,0.087,0.23,0.087
			c0.092,0,0.173-0.021,0.242-0.062c0.122-0.074,0.356-0.286,0.704-0.634v0.486c-0.648,0.868-1.268,1.303-1.858,1.303
			c-0.284,0-0.51-0.099-0.678-0.295C172.945,55.351,172.858,55.015,172.854,54.54z M172.854,53.976v-3.03
			c-0.874,0.348-1.438,0.594-1.693,0.738c-0.457,0.255-0.784,0.521-0.981,0.799c-0.196,0.278-0.295,0.582-0.295,0.912
			c0,0.416,0.124,0.763,0.373,1.037c0.249,0.275,0.535,0.413,0.859,0.413C171.557,54.845,172.136,54.555,172.854,53.976z"/>
		<path fill="#223D98" stroke="#2E3192" stroke-width="0.25" stroke-miterlimit="10" d="M178.366,52.786
			c-0.485-0.237-0.859-0.568-1.12-0.994c-0.26-0.425-0.391-0.896-0.391-1.411c0-0.787,0.297-1.464,0.891-2.031
			c0.593-0.567,1.353-0.852,2.279-0.852c0.758,0,1.415,0.186,1.971,0.557h1.685c0.249,0,0.394,0.007,0.434,0.021
			c0.041,0.015,0.07,0.039,0.087,0.073c0.035,0.053,0.053,0.146,0.053,0.278c0,0.15-0.015,0.255-0.044,0.313
			c-0.017,0.029-0.048,0.052-0.091,0.069c-0.044,0.018-0.189,0.026-0.438,0.026h-1.033c0.324,0.417,0.486,0.949,0.486,1.598
			c0,0.741-0.284,1.375-0.852,1.901s-1.328,0.79-2.283,0.79c-0.394,0-0.796-0.058-1.207-0.174c-0.255,0.221-0.427,0.413-0.517,0.578
			c-0.09,0.164-0.135,0.305-0.135,0.421c0,0.099,0.048,0.193,0.144,0.286s0.282,0.159,0.56,0.2c0.162,0.022,0.567,0.043,1.216,0.061
			c1.192,0.029,1.966,0.069,2.318,0.121c0.538,0.075,0.969,0.275,1.29,0.6s0.481,0.724,0.481,1.198c0,0.654-0.307,1.268-0.92,1.841
			c-0.903,0.845-2.081,1.268-3.534,1.268c-1.117,0-2.062-0.252-2.831-0.756c-0.434-0.289-0.651-0.59-0.651-0.902
			c0-0.14,0.032-0.278,0.096-0.417c0.099-0.214,0.301-0.513,0.608-0.895c0.04-0.052,0.335-0.364,0.885-0.938
			c-0.301-0.18-0.514-0.34-0.638-0.482c-0.125-0.142-0.187-0.302-0.187-0.481c0-0.202,0.082-0.439,0.247-0.712
			S177.771,53.284,178.366,52.786z M178.28,55.687c-0.272,0.295-0.479,0.57-0.617,0.825c-0.139,0.254-0.208,0.489-0.208,0.703
			c0,0.277,0.168,0.521,0.504,0.729c0.578,0.358,1.415,0.538,2.509,0.538c1.042,0,1.811-0.184,2.306-0.552
			c0.495-0.367,0.742-0.76,0.742-1.176c0-0.302-0.147-0.516-0.442-0.643c-0.302-0.128-0.897-0.203-1.789-0.226
			C179.981,55.852,178.98,55.785,178.28,55.687z M179.878,47.915c-0.429,0-0.788,0.171-1.077,0.513s-0.435,0.865-0.435,1.571
			c0,0.915,0.197,1.624,0.591,2.128c0.301,0.382,0.683,0.572,1.146,0.572c0.439,0,0.802-0.165,1.085-0.494
			c0.283-0.33,0.426-0.849,0.426-1.555c0-0.92-0.2-1.641-0.6-2.162C180.72,48.106,180.341,47.915,179.878,47.915z"/>
		<path fill="#223D98" stroke="#2E3192" stroke-width="0.25" stroke-miterlimit="10" d="M186.468,50.729
			c-0.006,1.181,0.281,2.107,0.86,2.778c0.578,0.672,1.259,1.008,2.04,1.008c0.521,0,0.974-0.144,1.359-0.43
			c0.385-0.287,0.707-0.777,0.968-1.473l0.27,0.174c-0.122,0.793-0.476,1.516-1.06,2.167c-0.585,0.651-1.317,0.977-2.197,0.977
			c-0.955,0-1.772-0.372-2.453-1.116c-0.68-0.743-1.02-1.743-1.02-3c0-1.359,0.349-2.421,1.046-3.182
			c0.697-0.762,1.573-1.142,2.627-1.142c0.892,0,1.623,0.293,2.196,0.881s0.86,1.373,0.86,2.357H186.468z M186.468,50.225h3.682
			c-0.028-0.509-0.09-0.868-0.182-1.076c-0.146-0.324-0.36-0.579-0.647-0.765c-0.286-0.185-0.586-0.277-0.898-0.277
			c-0.48,0-0.91,0.187-1.29,0.56C186.753,49.04,186.531,49.56,186.468,50.225z"/>
		<path fill="#223D98" stroke="#2E3192" stroke-width="0.25" stroke-miterlimit="10" d="M195.385,49.191
			c0.579-0.578,0.921-0.911,1.025-0.998c0.26-0.22,0.541-0.391,0.842-0.513c0.301-0.121,0.6-0.183,0.895-0.183
			c0.498,0,0.926,0.146,1.285,0.435c0.358,0.29,0.599,0.709,0.721,1.259c0.596-0.694,1.1-1.15,1.511-1.367s0.833-0.326,1.268-0.326
			c0.423,0,0.798,0.109,1.124,0.326c0.327,0.217,0.587,0.571,0.777,1.063c0.128,0.336,0.191,0.862,0.191,1.58v3.421
			c0,0.498,0.037,0.84,0.112,1.025c0.059,0.127,0.165,0.235,0.321,0.325s0.411,0.135,0.765,0.135v0.313h-3.925v-0.313h0.165
			c0.342,0,0.607-0.066,0.799-0.2c0.133-0.092,0.229-0.239,0.286-0.442c0.023-0.099,0.035-0.379,0.035-0.843v-3.421
			c0-0.647-0.078-1.105-0.234-1.372c-0.226-0.37-0.588-0.556-1.086-0.556c-0.307,0-0.614,0.077-0.925,0.23
			c-0.31,0.153-0.685,0.438-1.124,0.855l-0.018,0.096l0.018,0.373v3.794c0,0.545,0.03,0.883,0.091,1.017
			c0.062,0.133,0.176,0.244,0.344,0.334c0.167,0.09,0.454,0.135,0.859,0.135v0.313h-4.021v-0.313c0.44,0,0.742-0.052,0.907-0.156
			s0.279-0.261,0.344-0.469c0.028-0.099,0.043-0.385,0.043-0.86v-3.421c0-0.647-0.096-1.114-0.286-1.397
			c-0.255-0.37-0.611-0.556-1.068-0.556c-0.313,0-0.622,0.084-0.929,0.252c-0.481,0.255-0.852,0.541-1.112,0.859v4.263
			c0,0.521,0.036,0.86,0.109,1.017c0.072,0.156,0.179,0.273,0.321,0.352c0.142,0.078,0.43,0.117,0.863,0.117v0.313h-3.933v-0.313
			c0.364,0,0.619-0.039,0.764-0.117s0.255-0.203,0.33-0.373c0.075-0.171,0.112-0.503,0.112-0.995v-3.038
			c0-0.874-0.025-1.438-0.078-1.693c-0.04-0.191-0.104-0.323-0.19-0.396s-0.206-0.108-0.356-0.108c-0.162,0-0.355,0.043-0.581,0.13
			l-0.131-0.313l2.396-0.973h0.373V49.191z"/>
		<path fill="#223D98" stroke="#2E3192" stroke-width="0.25" stroke-miterlimit="10" d="M208.192,50.729
			c-0.006,1.181,0.281,2.107,0.86,2.778c0.578,0.672,1.259,1.008,2.04,1.008c0.521,0,0.974-0.144,1.359-0.43
			c0.385-0.287,0.707-0.777,0.968-1.473l0.27,0.174c-0.122,0.793-0.476,1.516-1.06,2.167c-0.585,0.651-1.317,0.977-2.197,0.977
			c-0.955,0-1.772-0.372-2.453-1.116c-0.68-0.743-1.02-1.743-1.02-3c0-1.359,0.349-2.421,1.046-3.182
			c0.697-0.762,1.573-1.142,2.627-1.142c0.892,0,1.623,0.293,2.196,0.881s0.86,1.373,0.86,2.357H208.192z M208.192,50.225h3.682
			c-0.028-0.509-0.09-0.868-0.182-1.076c-0.146-0.324-0.36-0.579-0.647-0.765c-0.286-0.185-0.586-0.277-0.898-0.277
			c-0.48,0-0.91,0.187-1.29,0.56C208.478,49.04,208.256,49.56,208.192,50.225z"/>
		<path fill="#223D98" stroke="#2E3192" stroke-width="0.25" stroke-miterlimit="10" d="M217.066,49.183
			c0.932-1.123,1.82-1.685,2.666-1.685c0.434,0,0.808,0.109,1.12,0.326s0.562,0.574,0.746,1.072c0.128,0.348,0.191,0.88,0.191,1.598
			v3.395c0,0.504,0.04,0.846,0.121,1.025c0.064,0.145,0.167,0.257,0.309,0.338c0.142,0.082,0.403,0.122,0.786,0.122v0.313h-3.934
			v-0.313h0.165c0.37,0,0.629-0.057,0.777-0.169c0.147-0.113,0.25-0.279,0.308-0.5c0.023-0.087,0.035-0.358,0.035-0.816v-3.256
			c0-0.724-0.095-1.249-0.282-1.576c-0.188-0.326-0.505-0.49-0.951-0.49c-0.688,0-1.375,0.376-2.058,1.129v4.193
			c0,0.539,0.032,0.872,0.096,0.999c0.081,0.168,0.192,0.291,0.334,0.369s0.43,0.117,0.864,0.117v0.313h-3.934v-0.313h0.174
			c0.405,0,0.679-0.103,0.82-0.309c0.142-0.205,0.213-0.598,0.213-1.177v-2.952c0-0.955-0.021-1.536-0.065-1.745
			c-0.043-0.208-0.109-0.35-0.199-0.425s-0.21-0.113-0.36-0.113c-0.162,0-0.356,0.043-0.582,0.13l-0.13-0.313l2.396-0.973h0.373
			V49.183z"/>
		<path fill="#223D98" stroke="#2E3192" stroke-width="0.25" stroke-miterlimit="10" d="M225.949,45.119v2.614h1.858v0.607h-1.858
			v5.157c0,0.516,0.074,0.863,0.222,1.042c0.147,0.18,0.337,0.27,0.568,0.27c0.191,0,0.376-0.06,0.556-0.178
			c0.18-0.119,0.318-0.294,0.417-0.525h0.339c-0.203,0.567-0.489,0.994-0.859,1.28c-0.371,0.287-0.753,0.43-1.146,0.43
			c-0.267,0-0.527-0.073-0.781-0.221c-0.255-0.148-0.443-0.359-0.564-0.634c-0.122-0.275-0.183-0.699-0.183-1.272v-5.349h-1.259
			v-0.286c0.318-0.128,0.644-0.344,0.977-0.647s0.63-0.664,0.89-1.081c0.134-0.22,0.318-0.622,0.557-1.207H225.949z"/>
	</g>
	<g>
	</g>
	<g>
		<path fill="#223D98" stroke="#2E3192" stroke-width="0.25" stroke-miterlimit="10" d="M242.439,43.912l0.131,2.762h-0.33
			c-0.064-0.486-0.15-0.834-0.261-1.042c-0.18-0.336-0.418-0.583-0.717-0.742c-0.298-0.159-0.689-0.239-1.176-0.239h-1.659v8.996
			c0,0.724,0.078,1.175,0.234,1.354c0.221,0.243,0.559,0.364,1.017,0.364h0.408v0.321h-4.993v-0.321h0.417
			c0.498,0,0.851-0.15,1.06-0.451c0.127-0.186,0.19-0.608,0.19-1.268V44.65h-1.415c-0.55,0-0.94,0.041-1.172,0.122
			c-0.302,0.109-0.559,0.321-0.773,0.634c-0.214,0.313-0.341,0.735-0.382,1.268h-0.33l0.14-2.762H242.439z"/>
	</g>
	<g>
		<path fill="#223D98" stroke="#2E3192" stroke-width="0.25" stroke-miterlimit="10" d="M245.69,47.498v6.391
			c0,0.498,0.036,0.83,0.108,0.995c0.072,0.164,0.18,0.287,0.321,0.368c0.142,0.082,0.4,0.122,0.777,0.122v0.313h-3.864v-0.313
			c0.388,0,0.648-0.038,0.781-0.113s0.239-0.199,0.317-0.373s0.117-0.507,0.117-0.999v-3.064c0-0.862-0.026-1.421-0.078-1.676
			c-0.041-0.186-0.104-0.314-0.191-0.387s-0.205-0.108-0.355-0.108c-0.162,0-0.359,0.043-0.591,0.13l-0.122-0.313l2.396-0.973
			H245.69z M244.97,43.34c0.243,0,0.45,0.085,0.62,0.256c0.171,0.171,0.257,0.378,0.257,0.621s-0.086,0.451-0.257,0.625
			c-0.17,0.174-0.377,0.26-0.62,0.26s-0.452-0.086-0.625-0.26c-0.174-0.174-0.261-0.382-0.261-0.625s0.085-0.45,0.256-0.621
			S244.721,43.34,244.97,43.34z"/>
		<path fill="#223D98" stroke="#2E3192" stroke-width="0.25" stroke-miterlimit="10" d="M250.214,47.498v1.789
			c0.665-1.192,1.349-1.789,2.049-1.789c0.318,0,0.582,0.098,0.79,0.291c0.209,0.194,0.313,0.419,0.313,0.673
			c0,0.227-0.075,0.417-0.226,0.573s-0.33,0.234-0.538,0.234c-0.203,0-0.43-0.1-0.682-0.299c-0.252-0.2-0.438-0.3-0.56-0.3
			c-0.104,0-0.218,0.058-0.339,0.174c-0.261,0.237-0.53,0.628-0.808,1.172v3.812c0,0.44,0.055,0.773,0.165,0.999
			c0.075,0.156,0.208,0.286,0.399,0.391c0.19,0.104,0.466,0.156,0.825,0.156v0.313h-4.072v-0.313c0.404,0,0.706-0.063,0.902-0.191
			c0.145-0.092,0.246-0.24,0.304-0.442c0.029-0.099,0.044-0.379,0.044-0.843v-3.082c0-0.926-0.019-1.478-0.057-1.654
			s-0.107-0.305-0.208-0.386c-0.102-0.081-0.228-0.122-0.378-0.122c-0.18,0-0.382,0.043-0.607,0.13l-0.087-0.313l2.404-0.973
			H250.214z"/>
		<path fill="#223D98" stroke="#2E3192" stroke-width="0.25" stroke-miterlimit="10" d="M260.781,47.733v4.818
			c0,0.921,0.021,1.483,0.064,1.689c0.044,0.205,0.113,0.349,0.209,0.43s0.207,0.121,0.334,0.121c0.18,0,0.382-0.049,0.608-0.147
			l0.121,0.304l-2.379,0.981h-0.391v-1.685c-0.684,0.741-1.204,1.207-1.563,1.398c-0.358,0.19-0.737,0.286-1.137,0.286
			c-0.446,0-0.833-0.129-1.159-0.387c-0.327-0.257-0.555-0.589-0.682-0.994c-0.128-0.405-0.191-0.978-0.191-1.719v-3.552
			c0-0.376-0.041-0.637-0.122-0.781s-0.201-0.256-0.36-0.334s-0.446-0.114-0.863-0.108v-0.321h2.787v5.322
			c0,0.741,0.129,1.228,0.387,1.459c0.257,0.231,0.568,0.347,0.933,0.347c0.249,0,0.531-0.078,0.847-0.234s0.69-0.454,1.125-0.895
			v-4.506c0-0.451-0.083-0.757-0.248-0.916s-0.508-0.245-1.028-0.256v-0.321H260.781z"/>
		<path fill="#223D98" stroke="#2E3192" stroke-width="0.25" stroke-miterlimit="10" d="M269.456,52.665
			c-0.215,1.048-0.635,1.854-1.26,2.418s-1.316,0.847-2.075,0.847c-0.902,0-1.69-0.379-2.361-1.138
			c-0.672-0.758-1.008-1.782-1.008-3.073c0-1.251,0.372-2.267,1.116-3.048s1.637-1.173,2.679-1.173c0.781,0,1.424,0.207,1.928,0.621
			c0.503,0.414,0.755,0.844,0.755,1.29c0,0.22-0.07,0.397-0.213,0.533c-0.142,0.137-0.34,0.204-0.595,0.204
			c-0.341,0-0.599-0.109-0.772-0.33c-0.099-0.121-0.163-0.353-0.195-0.694s-0.149-0.602-0.352-0.781
			c-0.203-0.174-0.483-0.261-0.843-0.261c-0.578,0-1.045,0.215-1.397,0.643c-0.469,0.567-0.703,1.317-0.703,2.249
			c0,0.949,0.232,1.787,0.699,2.514c0.466,0.727,1.095,1.09,1.888,1.09c0.567,0,1.077-0.194,1.528-0.582
			c0.318-0.266,0.628-0.749,0.93-1.45L269.456,52.665z"/>
		<path fill="#223D98" stroke="#2E3192" stroke-width="0.25" stroke-miterlimit="10" d="M272.929,43.34v5.817
			c0.643-0.706,1.151-1.159,1.528-1.359c0.376-0.199,0.752-0.3,1.129-0.3c0.451,0,0.839,0.125,1.163,0.374s0.564,0.64,0.721,1.172
			c0.11,0.371,0.165,1.048,0.165,2.032v2.813c0,0.504,0.04,0.849,0.121,1.034c0.059,0.139,0.156,0.248,0.296,0.329
			c0.139,0.082,0.394,0.122,0.764,0.122v0.313h-3.907v-0.313h0.183c0.37,0,0.628-0.057,0.772-0.169
			c0.145-0.113,0.246-0.279,0.304-0.5c0.018-0.092,0.026-0.364,0.026-0.816v-2.813c0-0.868-0.045-1.438-0.135-1.711
			c-0.09-0.271-0.233-0.476-0.43-0.612c-0.197-0.136-0.435-0.204-0.712-0.204c-0.284,0-0.579,0.075-0.886,0.227
			c-0.307,0.15-0.675,0.454-1.103,0.911v4.202c0,0.545,0.03,0.883,0.091,1.017c0.061,0.133,0.174,0.244,0.339,0.334
			s0.45,0.135,0.855,0.135v0.313h-3.942v-0.313c0.354,0,0.631-0.055,0.834-0.165c0.115-0.058,0.208-0.168,0.277-0.33
			s0.104-0.492,0.104-0.99v-7.197c0-0.909-0.021-1.468-0.065-1.676c-0.043-0.209-0.11-0.351-0.199-0.426
			c-0.09-0.075-0.21-0.113-0.36-0.113c-0.122,0-0.318,0.047-0.591,0.14l-0.121-0.305l2.379-0.972H272.929z"/>
		<path fill="#223D98" stroke="#2E3192" stroke-width="0.25" stroke-miterlimit="10" d="M282.229,47.498v6.391
			c0,0.498,0.036,0.83,0.108,0.995c0.072,0.164,0.18,0.287,0.321,0.368c0.142,0.082,0.4,0.122,0.777,0.122v0.313h-3.864v-0.313
			c0.388,0,0.648-0.038,0.781-0.113s0.239-0.199,0.317-0.373s0.117-0.507,0.117-0.999v-3.064c0-0.862-0.026-1.421-0.078-1.676
			c-0.041-0.186-0.104-0.314-0.191-0.387s-0.205-0.108-0.355-0.108c-0.162,0-0.359,0.043-0.591,0.13l-0.122-0.313l2.396-0.973
			H282.229z M281.508,43.34c0.243,0,0.45,0.085,0.62,0.256c0.171,0.171,0.257,0.378,0.257,0.621s-0.086,0.451-0.257,0.625
			c-0.17,0.174-0.377,0.26-0.62,0.26s-0.452-0.086-0.625-0.26c-0.174-0.174-0.261-0.382-0.261-0.625s0.085-0.45,0.256-0.621
			S281.259,43.34,281.508,43.34z"/>
		<path fill="#223D98" stroke="#2E3192" stroke-width="0.25" stroke-miterlimit="10" d="M286.752,47.498v1.789
			c0.665-1.192,1.349-1.789,2.049-1.789c0.318,0,0.582,0.098,0.79,0.291c0.209,0.194,0.313,0.419,0.313,0.673
			c0,0.227-0.075,0.417-0.226,0.573s-0.33,0.234-0.538,0.234c-0.203,0-0.43-0.1-0.682-0.299c-0.252-0.2-0.438-0.3-0.56-0.3
			c-0.104,0-0.218,0.058-0.339,0.174c-0.261,0.237-0.53,0.628-0.808,1.172v3.812c0,0.44,0.055,0.773,0.165,0.999
			c0.075,0.156,0.208,0.286,0.399,0.391c0.19,0.104,0.466,0.156,0.825,0.156v0.313h-4.072v-0.313c0.404,0,0.706-0.063,0.902-0.191
			c0.145-0.092,0.246-0.24,0.304-0.442c0.029-0.099,0.044-0.379,0.044-0.843v-3.082c0-0.926-0.019-1.478-0.057-1.654
			s-0.107-0.305-0.208-0.386c-0.102-0.081-0.228-0.122-0.378-0.122c-0.18,0-0.382,0.043-0.607,0.13l-0.087-0.313l2.404-0.973
			H286.752z"/>
		<path fill="#223D98" stroke="#2E3192" stroke-width="0.25" stroke-miterlimit="10" d="M294.854,54.54
			c-0.816,0.631-1.329,0.996-1.537,1.095c-0.313,0.145-0.646,0.217-0.999,0.217c-0.55,0-1.003-0.188-1.358-0.564
			c-0.356-0.376-0.534-0.871-0.534-1.484c0-0.388,0.087-0.724,0.261-1.008c0.237-0.394,0.649-0.764,1.237-1.111
			c0.587-0.348,1.564-0.77,2.931-1.268v-0.313c0-0.793-0.126-1.337-0.378-1.633c-0.252-0.295-0.618-0.442-1.099-0.442
			c-0.364,0-0.654,0.099-0.868,0.295c-0.22,0.197-0.33,0.423-0.33,0.678l0.018,0.503c0,0.267-0.068,0.473-0.204,0.617
			s-0.314,0.217-0.534,0.217c-0.214,0-0.39-0.075-0.525-0.226s-0.204-0.356-0.204-0.617c0-0.497,0.255-0.955,0.765-1.371
			c0.509-0.417,1.224-0.626,2.145-0.626c0.706,0,1.285,0.119,1.736,0.356c0.342,0.18,0.594,0.46,0.756,0.842
			c0.104,0.249,0.156,0.759,0.156,1.528v2.701c0,0.758,0.014,1.223,0.043,1.394s0.077,0.285,0.144,0.343s0.144,0.087,0.23,0.087
			c0.092,0,0.173-0.021,0.242-0.062c0.122-0.074,0.356-0.286,0.704-0.634v0.486c-0.648,0.868-1.268,1.303-1.858,1.303
			c-0.284,0-0.51-0.099-0.678-0.295C294.945,55.351,294.858,55.015,294.854,54.54z M294.854,53.976v-3.03
			c-0.874,0.348-1.438,0.594-1.693,0.738c-0.457,0.255-0.784,0.521-0.981,0.799c-0.196,0.278-0.295,0.582-0.295,0.912
			c0,0.416,0.124,0.763,0.373,1.037c0.249,0.275,0.535,0.413,0.859,0.413C293.557,54.845,294.136,54.555,294.854,53.976z"/>
		<path fill="#223D98" stroke="#2E3192" stroke-width="0.25" stroke-miterlimit="10" d="M297.666,48.523l2.449-0.99h0.329v1.858
			c0.411-0.7,0.824-1.191,1.237-1.472c0.414-0.281,0.85-0.422,1.308-0.422c0.799,0,1.464,0.313,1.997,0.938
			c0.653,0.764,0.98,1.76,0.98,2.986c0,1.372-0.394,2.507-1.181,3.404c-0.648,0.735-1.465,1.103-2.448,1.103
			c-0.429,0-0.799-0.061-1.111-0.183c-0.231-0.087-0.492-0.261-0.782-0.521v2.422c0,0.545,0.033,0.891,0.101,1.038
			c0.066,0.147,0.182,0.265,0.347,0.352s0.465,0.13,0.899,0.13v0.321h-4.168v-0.321h0.217c0.318,0.006,0.591-0.055,0.816-0.182
			c0.109-0.064,0.195-0.167,0.256-0.309s0.091-0.502,0.091-1.081v-7.52c0-0.515-0.022-0.842-0.069-0.981
			c-0.046-0.139-0.12-0.242-0.221-0.313c-0.102-0.069-0.239-0.104-0.413-0.104c-0.139,0-0.315,0.04-0.529,0.121L297.666,48.523z
			 M300.444,49.903v2.97c0,0.643,0.026,1.065,0.078,1.268c0.081,0.336,0.279,0.631,0.596,0.886c0.315,0.255,0.713,0.382,1.193,0.382
			c0.579,0,1.048-0.226,1.406-0.677c0.47-0.591,0.704-1.421,0.704-2.492c0-1.216-0.267-2.15-0.799-2.805
			c-0.371-0.451-0.811-0.677-1.32-0.677c-0.277,0-0.553,0.069-0.824,0.208C301.27,49.07,300.925,49.383,300.444,49.903z"/>
		<path fill="#223D98" stroke="#2E3192" stroke-width="0.25" stroke-miterlimit="10" d="M306.558,48.523l2.449-0.99h0.329v1.858
			c0.411-0.7,0.824-1.191,1.237-1.472c0.414-0.281,0.85-0.422,1.308-0.422c0.799,0,1.464,0.313,1.997,0.938
			c0.653,0.764,0.98,1.76,0.98,2.986c0,1.372-0.394,2.507-1.181,3.404c-0.648,0.735-1.465,1.103-2.448,1.103
			c-0.429,0-0.799-0.061-1.111-0.183c-0.231-0.087-0.492-0.261-0.782-0.521v2.422c0,0.545,0.033,0.891,0.101,1.038
			c0.066,0.147,0.182,0.265,0.347,0.352s0.465,0.13,0.899,0.13v0.321h-4.168v-0.321h0.217c0.318,0.006,0.591-0.055,0.816-0.182
			c0.109-0.064,0.195-0.167,0.256-0.309s0.091-0.502,0.091-1.081v-7.52c0-0.515-0.022-0.842-0.069-0.981
			c-0.046-0.139-0.12-0.242-0.221-0.313c-0.102-0.069-0.239-0.104-0.413-0.104c-0.139,0-0.315,0.04-0.529,0.121L306.558,48.523z
			 M309.336,49.903v2.97c0,0.643,0.026,1.065,0.078,1.268c0.081,0.336,0.279,0.631,0.596,0.886c0.315,0.255,0.713,0.382,1.193,0.382
			c0.579,0,1.048-0.226,1.406-0.677c0.47-0.591,0.704-1.421,0.704-2.492c0-1.216-0.267-2.15-0.799-2.805
			c-0.371-0.451-0.811-0.677-1.32-0.677c-0.277,0-0.553,0.069-0.824,0.208C310.161,49.07,309.816,49.383,309.336,49.903z"/>
		<path fill="#223D98" stroke="#2E3192" stroke-width="0.25" stroke-miterlimit="10" d="M320.528,54.54
			c-0.816,0.631-1.329,0.996-1.537,1.095c-0.313,0.145-0.646,0.217-0.999,0.217c-0.55,0-1.003-0.188-1.358-0.564
			c-0.356-0.376-0.534-0.871-0.534-1.484c0-0.388,0.087-0.724,0.261-1.008c0.237-0.394,0.649-0.764,1.237-1.111
			c0.587-0.348,1.564-0.77,2.931-1.268v-0.313c0-0.793-0.126-1.337-0.378-1.633c-0.252-0.295-0.618-0.442-1.099-0.442
			c-0.364,0-0.654,0.099-0.868,0.295c-0.22,0.197-0.33,0.423-0.33,0.678l0.018,0.503c0,0.267-0.068,0.473-0.204,0.617
			s-0.314,0.217-0.534,0.217c-0.214,0-0.39-0.075-0.525-0.226s-0.204-0.356-0.204-0.617c0-0.497,0.255-0.955,0.765-1.371
			c0.509-0.417,1.224-0.626,2.145-0.626c0.706,0,1.285,0.119,1.736,0.356c0.342,0.18,0.594,0.46,0.756,0.842
			c0.104,0.249,0.156,0.759,0.156,1.528v2.701c0,0.758,0.014,1.223,0.043,1.394s0.077,0.285,0.144,0.343s0.144,0.087,0.23,0.087
			c0.092,0,0.173-0.021,0.242-0.062c0.122-0.074,0.356-0.286,0.704-0.634v0.486c-0.648,0.868-1.268,1.303-1.858,1.303
			c-0.284,0-0.51-0.099-0.678-0.295C320.62,55.351,320.533,55.015,320.528,54.54z M320.528,53.976v-3.03
			c-0.874,0.348-1.438,0.594-1.693,0.738c-0.457,0.255-0.784,0.521-0.981,0.799c-0.196,0.278-0.295,0.582-0.295,0.912
			c0,0.416,0.124,0.763,0.373,1.037c0.249,0.275,0.535,0.413,0.859,0.413C319.231,54.845,319.811,54.555,320.528,53.976z"/>
		<path fill="#223D98" stroke="#2E3192" stroke-width="0.25" stroke-miterlimit="10" d="M326.65,43.34v10.549
			c0,0.498,0.036,0.828,0.108,0.99s0.184,0.285,0.334,0.369s0.432,0.126,0.843,0.126v0.313h-3.898v-0.313
			c0.364,0,0.613-0.038,0.746-0.113s0.237-0.199,0.313-0.373s0.113-0.507,0.113-0.999v-7.224c0-0.897-0.021-1.448-0.061-1.654
			c-0.041-0.205-0.106-0.346-0.195-0.421c-0.09-0.075-0.204-0.113-0.344-0.113c-0.15,0-0.341,0.047-0.572,0.14l-0.148-0.305
			l2.371-0.972H326.65z"/>
		<path fill="#223D98" stroke="#2E3192" stroke-width="0.25" stroke-miterlimit="10" d="M331.591,43.34v10.549
			c0,0.498,0.036,0.828,0.108,0.99s0.184,0.285,0.334,0.369s0.432,0.126,0.843,0.126v0.313h-3.898v-0.313
			c0.364,0,0.613-0.038,0.746-0.113s0.237-0.199,0.313-0.373s0.113-0.507,0.113-0.999v-7.224c0-0.897-0.021-1.448-0.061-1.654
			c-0.041-0.205-0.106-0.346-0.195-0.421c-0.09-0.075-0.204-0.113-0.344-0.113c-0.15,0-0.341,0.047-0.572,0.14l-0.148-0.305
			l2.371-0.972H331.591z"/>
		<path fill="#223D98" stroke="#2E3192" stroke-width="0.25" stroke-miterlimit="10" d="M336.54,47.498v6.391
			c0,0.498,0.036,0.83,0.108,0.995c0.072,0.164,0.18,0.287,0.321,0.368c0.142,0.082,0.4,0.122,0.777,0.122v0.313h-3.864v-0.313
			c0.388,0,0.648-0.038,0.781-0.113s0.239-0.199,0.317-0.373s0.117-0.507,0.117-0.999v-3.064c0-0.862-0.026-1.421-0.078-1.676
			c-0.041-0.186-0.104-0.314-0.191-0.387s-0.205-0.108-0.355-0.108c-0.162,0-0.359,0.043-0.591,0.13l-0.122-0.313l2.396-0.973
			H336.54z M335.819,43.34c0.243,0,0.45,0.085,0.62,0.256c0.171,0.171,0.257,0.378,0.257,0.621s-0.086,0.451-0.257,0.625
			c-0.17,0.174-0.377,0.26-0.62,0.26s-0.452-0.086-0.625-0.26c-0.174-0.174-0.261-0.382-0.261-0.625s0.085-0.45,0.256-0.621
			S335.57,43.34,335.819,43.34z"/>
	</g>
	<g>
		<path fill="#223D98" stroke="#2E3192" stroke-width="0.25" stroke-miterlimit="10" d="M9.214,32.184v2.729v0.18l-0.246,0.21H8.66
			c-0.175,0-0.428-0.127-0.758-0.382c-0.466-0.332-0.894-0.724-1.282-1.175l-1.107-1.322c-0.194-0.294-0.321-0.559-0.379-0.793
			l0.087-0.243l0.233-0.244l0.263-0.152l0.204-0.061h1.748v-4.059c0-0.348-0.126-0.647-0.379-0.898
			c-0.252-0.251-0.563-0.377-0.933-0.377c-0.175,0-0.369,0.039-0.583,0.115l-0.495,0.26l-0.32,0.461l-0.117,0.606v0.404L5,27.875
			l0.063,0.202l0.158,0.26l-1.457-0.029l-0.116-0.202l-0.029-0.173l-0.117-0.405V27.15c0-0.849,0.285-1.509,0.855-1.981
			c0.57-0.473,1.262-0.709,2.073-0.709c1.276,0,2.137,0.493,2.581,1.48c0.136,0.406,0.203,0.764,0.203,1.074v3.917h4.78v1.253H9.214
			z M10.525,25.596v-1.137h1.137v1.137H10.525z"/>
		<path fill="#223D98" stroke="#2E3192" stroke-width="0.25" stroke-miterlimit="10" d="M15.51,25.655v13.817h-1.545V25.655h-2.855
			v-1.195h7.228v1.195H15.51z"/>
		<path fill="#223D98" stroke="#2E3192" stroke-width="0.25" stroke-miterlimit="10" d="M21.775,25.655v13.817H20.23V25.655h-2.855
			v-1.195h7.228v1.195H21.775z"/>
		<path fill="#223D98" stroke="#2E3192" stroke-width="0.25" stroke-miterlimit="10" d="M32.939,25.655v3.785
			c0,1.252-0.661,2.139-1.982,2.659c-0.389,0.135-0.777,0.202-1.166,0.202h-0.554c-0.272-0.039-0.447-0.087-0.524-0.146l2.099,3.002
			l0.815,1.02l1.516,1.662l0.642,0.641l-1.078,0.991c-0.292-0.097-0.836-0.62-1.633-1.57c-0.952-1.104-1.895-2.355-2.827-3.75
			l-0.903-1.337l-0.846-1.396l-0.611-1.046l-0.583-1.047l1.194-0.872l1.195,2.019c0.311,0.481,0.864,0.721,1.661,0.721
			c0.642,0,1.112-0.14,1.414-0.42c0.301-0.28,0.51-0.769,0.627-1.464v-3.654H23.35v-1.195h11.921v1.195H32.939z"/>
		<path fill="#223D98" stroke="#2E3192" stroke-width="0.25" stroke-miterlimit="10" d="M46.959,25.655v13.817h-1.545v-9.736h-5.429
			c-0.311,0-0.61,0.059-0.9,0.176c-0.426,0.078-0.755,0.411-0.987,0.997l-0.116,0.734c0,1.331,0.41,2.661,1.229,3.991
			c0.82,1.331,1.548,2.201,2.185,2.612c0.174,0.117,0.356,0.176,0.55,0.176l-1.02,1.05c-0.059-0.02-0.112-0.039-0.161-0.059
			c-0.048-0.02-0.121-0.077-0.218-0.175l-0.816-0.79l-1.195-1.344l-0.495-0.701l-0.438-0.73c-0.408-0.702-0.704-1.369-0.889-2.002
			c-0.186-0.633-0.277-1.301-0.277-2.002c0-0.876,0.224-1.607,0.671-2.192c0.155-0.233,0.417-0.448,0.787-0.643
			c0.368-0.195,0.747-0.292,1.137-0.292h6.383v-2.886h-10.93v-1.195h15.156v1.195H46.959z"/>
		<path fill="#223D98" stroke="#2E3192" stroke-width="0.25" stroke-miterlimit="10" d="M53.195,25.655v13.817h-1.544V25.655h-2.565
			v-1.195h2.244l0.029-0.117c0-0.469-0.784-1.603-2.352-3.401c-0.941-1.094-1.764-1.641-2.47-1.641c-0.627,0-1.117,0.243-1.47,0.729
			c-0.177,0.272-0.344,0.681-0.5,1.224v0.554c0,0.252,0.035,0.486,0.104,0.699c0.071,0.214,0.131,0.394,0.18,0.54
			c0.051,0.146,0.105,0.277,0.165,0.394l0.39,0.729l0.21,0.292l-1.729-0.029l-0.358-0.466l-0.298-0.583l-0.209-0.641v-0.67
			c0-0.292,0.01-0.505,0.029-0.641s0.098-0.398,0.233-0.787c0.563-1.652,1.641-2.478,3.232-2.478c0.681,0,1.399,0.263,2.156,0.787
			c0.912,0.622,1.679,1.409,2.301,2.361l0.845,1.312l1.049,1.836h2.775v1.195H53.195z"/>
		<path fill="#223D98" stroke="#2E3192" stroke-width="0.25" stroke-miterlimit="10" d="M68.031,25.655v13.817h-1.545v-4.489
			c-1.029,0.875-2.215,1.312-3.556,1.312c-1.535,0-2.817-0.476-3.848-1.428c-1.146-1.05-1.719-2.371-1.719-3.964l0.232,0.087
			l0.263,0.087c0.136,0,0.223,0,0.263,0h0.291c0.68,0,1.282-0.202,1.807-0.606c0.486-0.422,0.729-1.047,0.729-1.874
			c0-0.52-0.243-1.192-0.729-2.019l-0.729-0.923h-4.109v-1.195H70.13v1.195H68.031z M66.486,25.655h-5.13l0.351,0.581l0.232,0.436
			l0.467,1.133l0.146,0.901c0,1.279-0.563,2.267-1.69,2.964l-0.729,0.291l-0.991,0.262l0.088,0.291l0.116,0.232l0.088,0.232
			l0.087,0.174c0.699,1.396,1.769,2.093,3.206,2.093c0.816,0,1.545-0.223,2.187-0.669c0.33-0.212,0.641-0.474,0.933-0.784
			l0.641-0.901V25.655z"/>
		<path fill="#223D98" stroke="#2E3192" stroke-width="0.25" stroke-miterlimit="10" d="M92.106,25.655v13.817h-1.545v-5.801
			l-0.524,0.437l-0.379,0.263c-0.681,0.466-1.419,0.7-2.215,0.7c-1.69,0-2.944-0.823-3.761-2.47
			c-0.194-0.581-0.291-1.104-0.291-1.569v-5.376h-2.273v-1.195h13.378v1.195H92.106z M90.562,25.655h-5.684v5.577
			c0,1.104,0.544,1.956,1.633,2.556l0.874,0.145c0.583,0,1.176-0.184,1.778-0.552l0.554-0.436l0.379-0.407l0.466-0.61V25.655z"/>
		<path fill="#223D98" stroke="#2E3192" stroke-width="0.25" stroke-miterlimit="10" d="M83.693,39.496l-1.002-1.161l8.104-5.08
			v1.204L83.693,39.496z"/>
		<path fill="#223D98" stroke="#2E3192" stroke-width="0.25" stroke-miterlimit="10" d="M105.105,25.655v13.817h-1.545v-4.431
			c-0.175,0.233-0.398,0.447-0.671,0.641l-0.758,0.379c-0.232,0.117-0.505,0.204-0.815,0.263l-0.846,0.058
			c-0.583,0-1.112-0.082-1.589-0.247c-0.476-0.164-0.952-0.455-1.428-0.871c-0.477-0.417-0.831-0.866-1.063-1.351
			c-0.195-0.523-0.292-1.084-0.292-1.685c0-1.104,0.408-2.062,1.225-2.875c0.389-0.387,0.835-0.697,1.341-0.93
			c0.271-0.116,0.534-0.193,0.786-0.232c0.253-0.039,0.506-0.059,0.758-0.059h0.671l0.729,0.123l0.146,0.062l0.233,0.062
			l0.204,1.329c-0.078-0.117-0.263-0.214-0.554-0.292l-0.758-0.117c-0.331,0-0.554,0-0.671,0l-0.641,0.181l-0.583,0.272
			l-0.438,0.363l4.839,3.323l0.175-0.641v-7.142h-9.327v-1.195h12.912l0.059,1.195H105.105z M97.93,30.822l-0.125,0.291
			l-0.063,0.204l-0.157,0.524v0.378c0,0.466,0.063,0.869,0.189,1.208s0.344,0.645,0.654,0.917c0.271,0.291,0.592,0.524,0.961,0.698
			c0.445,0.136,0.813,0.204,1.105,0.204h0.465l0.32-0.115c0.155-0.039,0.281-0.081,0.378-0.129c0.098-0.048,0.233-0.139,0.408-0.274
			l0.29-0.201l0.35-0.316L97.93,30.822z"/>
		<path fill="#223D98" stroke="#2E3192" stroke-width="0.25" stroke-miterlimit="10" d="M104.436,21.166v-1.895h2.011v1.895H104.436
			z"/>
		<path fill="#223D98" stroke="#2E3192" stroke-width="0.25" stroke-miterlimit="10" d="M117.201,34.851l-1.05,0.723
			c-1.127,0.771-2.4,1.157-3.818,1.157c-0.913,0-1.769-0.294-2.564-0.884c-0.797-0.589-1.195-1.329-1.195-2.219
			c0-0.638,0.243-1.266,0.729-1.885l0.292-0.29l0.466-0.377c-0.603-0.292-1.194-0.8-1.777-1.523l-0.583-1.054
			c-0.098-0.371-0.166-0.731-0.204-1.083c0-0.878,0.271-1.591,0.815-2.138c0.544-0.546,1.254-0.82,2.128-0.82
			c1.205,0,2.03,0.471,2.478,1.412c0.098,0.255,0.165,0.549,0.204,0.883v0.882h-1.312v-0.916c0-0.788-0.438-1.183-1.312-1.183
			c-0.408,0-0.768,0.185-1.078,0.554l-0.292,0.583l-0.087,0.67c0,0.739,0.204,1.37,0.611,1.895c0.155,0.214,0.292,0.379,0.408,0.496
			c0.117,0.116,0.268,0.248,0.452,0.394c0.185,0.146,0.412,0.238,0.685,0.277l0.991-0.25l1.137-0.1h0.524h0.583l0.642,1.162
			l-1.953,0.091c-0.563,0-0.942,0.048-1.137,0.145c-1.205,0.271-1.807,0.975-1.807,2.113c0,0.83,0.515,1.448,1.544,1.853
			l0.904,0.116c1.166,0,2.36-0.452,3.585-1.355l0.641-0.577l0.758-0.808v1.534C117.608,34.484,117.473,34.658,117.201,34.851z
			 M114.49,25.538v-1.079h0.874v1.079H114.49z"/>
		<path fill="#223D98" stroke="#2E3192" stroke-width="0.25" stroke-miterlimit="10" d="M119.328,25.655v13.817h-1.545V25.655
			h-2.855v-1.195h7.228v1.195H119.328z"/>
		<path fill="#223D98" stroke="#2E3192" stroke-width="0.25" stroke-miterlimit="10" d="M147.63,25.655v13.817h-1.544v-7.579h-4.11
			l-1.02-1.195h5.13v-5.043h-5.48v4.807v0.288l-0.178,0.633c-0.119,0.403-0.445,0.72-0.979,0.95l-0.623,0.173
			c-0.179,0-0.297,0.032-0.356,0.097l-0.296,0.049l-0.327-0.029c-0.118,0-0.257-0.039-0.415-0.119l1.813,2.735l0.784,1.022
			l1.395,1.605l0.61,0.613l-1.195,0.993c-0.35-0.116-0.816-0.612-1.398-1.487l-3.557-5.159l-0.815-1.332l-0.525-0.897l-0.524-0.926
			l1.268-0.81l0.855,1.614c0.354,0.673,0.934,1.009,1.739,1.009l0.648-0.084c0.177-0.056,0.305-0.15,0.384-0.281l0.206-0.421v-0.612
			v-0.437v-3.994h-6.878v-1.195h17.779v1.195H147.63z"/>
		<path fill="#223D98" stroke="#2E3192" stroke-width="0.25" stroke-miterlimit="10" d="M146.901,21.166v-1.895h2.011v1.895H146.901
			z"/>
		<path fill="#223D98" stroke="#2E3192" stroke-width="0.25" stroke-miterlimit="10" d="M157.802,25.655v4.807v0.288l-0.178,0.633
			c-0.119,0.403-0.445,0.72-0.979,0.95l-0.623,0.173c-0.179,0-0.297,0.032-0.356,0.097l-0.296,0.049l-0.327-0.029
			c-0.118,0-0.257-0.039-0.415-0.119l1.813,2.735l0.784,1.022l1.395,1.605l0.61,0.613l-1.195,0.993
			c-0.35-0.116-0.816-0.612-1.398-1.487l-3.557-5.159l-0.815-1.332l-0.525-0.897l-0.524-0.926l1.268-0.81l0.855,1.614
			c0.354,0.673,0.934,1.009,1.739,1.009l0.648-0.084c0.177-0.056,0.305-0.15,0.384-0.281l0.206-0.421v-0.612v-0.437v-3.994h-6.878
			v-1.195h11.513v1.195H157.802z M159.172,31.893l-1.02-1.195h5.13v1.195H159.172z"/>
		<path fill="#223D98" stroke="#2E3192" stroke-width="0.25" stroke-miterlimit="10" d="M172.024,34.758l-0.67,0.502l-0.962,0.561
			l-0.933,0.383l-0.962,0.266h-0.962c-0.506,0-0.967-0.044-1.385-0.132c-0.418-0.088-0.859-0.26-1.326-0.515
			c-0.815-0.411-1.584-1.038-2.302-1.88c-0.098-0.118-0.195-0.245-0.292-0.382c-0.155-0.215-0.291-0.431-0.408-0.646l-0.758-1.487
			l1.107,0.408l1.283,0.117c1.088,0,2.04-0.284,2.856-0.853c0.815-0.569,1.224-1.421,1.224-2.558c0-0.7-0.258-1.355-0.772-1.968
			c-0.515-0.612-1.171-0.918-1.967-0.918c-0.545,0-0.981,0.136-1.313,0.408c-0.194,0.156-0.34,0.35-0.437,0.583l-0.117,0.641
			c0,0.564,0.311,0.991,0.933,1.283l0.379,0.117l0.555,0.087v1.224h-0.379c-1.166,0-2.021-0.398-2.565-1.195
			c-0.272-0.388-0.408-0.913-0.408-1.574c0-1.225,0.719-2.08,2.157-2.565c0.233-0.058,0.438-0.106,0.612-0.146
			s0.368-0.059,0.583-0.059c0.602,0,1.146,0.107,1.632,0.321c1.029,0.35,1.797,1.079,2.303,2.186
			c0.193,0.544,0.291,1.069,0.291,1.574c0,2.08-1.049,3.439-3.147,4.081c-0.719,0.194-1.477,0.292-2.273,0.292h-0.32
			c0.116,0.292,0.32,0.583,0.611,0.875l1.021,0.758c0.854,0.486,1.69,0.729,2.507,0.729c1.573,0,2.914-0.592,4.022-1.778l0.67-0.729
			l0.729-1.079v2.302L172.024,34.758z"/>
		<path fill="#223D98" stroke="#2E3192" stroke-width="0.25" stroke-miterlimit="10" d="M174.444,25.655v13.817h-1.545V25.655
			h-2.855v-1.195h7.228v1.195H174.444z"/>
		<path fill="#223D98" stroke="#2E3192" stroke-width="0.25" stroke-miterlimit="10" d="M180.71,25.655v13.817h-1.545V25.655h-2.855
			v-1.195h7.228v1.195H180.71z"/>
		<path fill="#223D98" stroke="#2E3192" stroke-width="0.25" stroke-miterlimit="10" d="M195.226,25.655v13.817h-1.545v-8.628h-5.45
			v2.482v0.404c0,0.089-0.011,0.15-0.031,0.184s-0.111,0.127-0.274,0.283h-0.336c-0.116,0-0.33-0.125-0.642-0.376l-1.078-1.129
			c-0.291-0.328-0.603-0.752-0.933-1.274c-0.175-0.29-0.291-0.55-0.35-0.782c0-0.349,0.155-0.647,0.466-0.894l0.263-0.092h0.35
			h8.016v-3.994h-10.813v-1.195h14.748v1.195H195.226z"/>
		<path fill="#223D98" stroke="#2E3192" stroke-width="0.25" stroke-miterlimit="10" d="M223.848,24.43l-0.729-0.641l-0.7-0.7
			c-0.35-0.35-0.699-0.651-1.049-0.903l-0.671-0.496l-1.748-1.166c-0.603-0.408-1.293-0.743-2.069-1.006
			c-0.778-0.262-1.448-0.394-2.012-0.394c-0.466,0-0.855,0.078-1.166,0.233c-0.699,0.233-1.253,0.797-1.661,1.69
			c-0.136,0.486-0.204,0.943-0.204,1.37v0.583l0.175,0.67l0.21,0.554l0.14,0.233h2.478v1.195h-2.478v13.817h-1.545V25.655h-2.564
			v-1.195h2.652l-0.088-0.264l-0.189-0.732l-0.189-0.79v-0.469c0-0.527,0.044-0.966,0.131-1.318
			c0.088-0.351,0.268-0.712,0.539-1.083c0.523-0.722,1.202-1.259,2.036-1.61c0.602-0.215,1.212-0.322,1.833-0.322
			c1.474,0,3.132,0.564,4.975,1.691c0.756,0.466,1.435,0.943,2.036,1.428l2.095,1.749l0.844,0.875l0.872,0.845L223.848,24.43z"/>
		<path fill="#223D98" stroke="#2E3192" stroke-width="0.25" stroke-miterlimit="10" d="M226.732,25.655v13.817h-1.545v-9.736
			h-5.429c-0.311,0-0.61,0.059-0.9,0.176c-0.426,0.078-0.755,0.411-0.987,0.997l-0.116,0.734c0,1.331,0.41,2.661,1.229,3.991
			c0.82,1.331,1.548,2.201,2.185,2.612c0.174,0.117,0.356,0.176,0.55,0.176l-1.02,1.05c-0.059-0.02-0.112-0.039-0.161-0.059
			c-0.048-0.02-0.121-0.077-0.218-0.175l-0.816-0.79l-1.195-1.344l-0.495-0.701l-0.438-0.73c-0.408-0.702-0.704-1.369-0.889-2.002
			c-0.186-0.633-0.277-1.301-0.277-2.002c0-0.876,0.224-1.607,0.671-2.192c0.155-0.233,0.417-0.448,0.787-0.643
			c0.368-0.195,0.747-0.292,1.137-0.292h6.383v-2.886h-10.93v-1.195h15.156v1.195H226.732z"/>
		<path fill="#223D98" stroke="#2E3192" stroke-width="0.25" stroke-miterlimit="10" d="M237.604,25.655v3.614h3.526l0.816-0.32
			l0.816-0.117c1.574,0,2.72,0.972,3.439,2.915c0.193,0.641,0.291,1.195,0.291,1.662c0,1.71-0.369,3.216-1.107,4.518l-0.233,0.408
			l-0.32,0.438l-1.253-0.788l0.513-0.699l0.361-0.612c0.423-0.68,0.704-1.487,0.845-2.419v-0.787c0-0.816-0.232-1.54-0.699-2.171
			c-0.466-0.631-1.088-0.948-1.865-0.948c-0.369,0-0.632,0.051-0.787,0.151c-0.389,0.06-0.699,0.372-0.933,0.934l-0.116,0.723
			c0,0.668,0.213,1.202,0.641,1.603l0.263,0.229l0.408,0.229l-0.787,1.145c-0.506-0.23-0.933-0.645-1.282-1.242
			c-0.156-0.289-0.282-0.607-0.379-0.954l-0.117-1.011l0.088-0.832l0.262-0.771l-2.681-0.029l-0.059,0.242l-0.059,0.151
			c-0.175,0.463-0.689,0.876-1.545,1.239h-0.32h-0.438h-0.437h-0.146h-0.116l0.175,0.352l0.554,0.822l0.699,1.057l0.671,0.881
			l0.787,0.998l2.215,2.496l-1.235,0.821l-0.746-0.784l-1.045-1.219l-1.346-1.655l-1.253-1.771l-1.429-2.09l-1.02-1.713
			l-0.292-0.568l-0.262-0.598l1.253-0.612l1.078,1.844c0.272,0.326,0.758,0.547,1.458,0.663c0.466,0,0.845-0.148,1.137-0.445
			c0.155-0.157,0.271-0.345,0.35-0.563l0.116-0.8v-3.614h-7.17v-1.195h18.508v1.195H237.604z"/>
		<path fill="#223D98" stroke="#2E3192" stroke-width="0.25" stroke-miterlimit="10" d="M263.049,24.43l-0.729-0.641l-0.7-0.7
			c-0.35-0.35-0.699-0.651-1.049-0.903L259.9,21.69l-1.748-1.166c-0.603-0.408-1.293-0.743-2.069-1.006
			c-0.778-0.262-1.448-0.394-2.012-0.394c-0.466,0-0.855,0.078-1.166,0.233c-0.699,0.233-1.253,0.797-1.661,1.69
			c-0.136,0.486-0.204,0.943-0.204,1.37v0.583l0.175,0.67l0.21,0.554l0.14,0.233h2.478v1.195h-2.478v13.817h-1.545V25.655h-2.564
			v-1.195h2.652l-0.088-0.264l-0.189-0.732l-0.189-0.79v-0.469c0-0.527,0.044-0.966,0.131-1.318
			c0.088-0.351,0.268-0.712,0.539-1.083c0.523-0.722,1.202-1.259,2.036-1.61c0.602-0.215,1.212-0.322,1.833-0.322
			c1.474,0,3.132,0.564,4.975,1.691c0.756,0.466,1.435,0.943,2.036,1.428l2.095,1.749l0.844,0.875l0.872,0.845L263.049,24.43z"/>
		<path fill="#223D98" stroke="#2E3192" stroke-width="0.25" stroke-miterlimit="10" d="M267.596,25.655v13.817h-1.545v-5.801
			l-0.466,0.583l-1.05,0.845c-0.389,0.311-0.972,0.622-1.749,0.933c-0.583,0.233-1.127,0.35-1.632,0.35
			c-0.972,0-1.778-0.282-2.419-0.845c-0.292-0.252-0.53-0.588-0.715-1.006c-0.185-0.417-0.276-0.87-0.276-1.355
			c0-1.03,0.485-2.03,1.457-3.002c0.214-0.213,0.467-0.408,0.758-0.583l-4.78-0.029v-1.195h8.891v1.195h-1.941l-0.84,0.583
			l-0.58,0.467c-0.946,0.777-1.419,1.613-1.419,2.507c0,0.972,0.377,1.623,1.132,1.953l0.813,0.116c1.122,0,2.264-0.543,3.425-1.632
			l0.609-0.583c0.521-0.563,0.783-0.971,0.783-1.224v-6.092h-12.3v-1.195h15.885v1.195H267.596z"/>
		<path fill="#223D98" stroke="#2E3192" stroke-width="0.25" stroke-miterlimit="10" d="M278.525,25.655v3.785
			c0,1.252-0.661,2.139-1.982,2.659c-0.389,0.135-0.777,0.202-1.166,0.202h-0.554c-0.272-0.039-0.447-0.087-0.524-0.146l2.099,3.002
			l0.815,1.02l1.516,1.662l0.642,0.641l-1.078,0.991c-0.292-0.097-0.836-0.62-1.633-1.57c-0.952-1.104-1.895-2.355-2.827-3.75
			l-0.903-1.337l-0.846-1.396l-0.611-1.046l-0.583-1.047l1.194-0.872l1.195,2.019c0.311,0.481,0.864,0.721,1.661,0.721
			c0.642,0,1.112-0.14,1.414-0.42c0.301-0.28,0.51-0.769,0.627-1.464v-3.654h-8.045v-1.195h11.921v1.195H278.525z"/>
		<path fill="#223D98" stroke="#2E3192" stroke-width="0.25" stroke-miterlimit="10" d="M284.471,25.655v13.817h-1.545V25.655
			h-2.855v-1.195h7.228v1.195H284.471z"/>
		<path fill="#223D98" stroke="#2E3192" stroke-width="0.25" stroke-miterlimit="10" d="M297.616,25.655v13.817h-1.545v-5.801
			l-0.524,0.437l-0.379,0.263c-0.681,0.466-1.419,0.7-2.215,0.7c-1.69,0-2.944-0.823-3.761-2.47
			c-0.194-0.581-0.291-1.104-0.291-1.569v-5.376h-2.273v-1.195h13.378v1.195H297.616z M296.071,25.655h-5.684v5.577
			c0,1.104,0.544,1.956,1.633,2.556l0.874,0.145c0.583,0,1.176-0.184,1.778-0.552l0.554-0.436l0.379-0.407l0.466-0.61V25.655z"/>
		<path fill="#223D98" stroke="#2E3192" stroke-width="0.25" stroke-miterlimit="10" d="M299.598,25.655v-1.195h11.28v1.195H299.598
			z M312.685,30.843l-0.903,0.438l-0.379,0.262l-0.408,0.379l-0.495,0.583l-0.438,0.7l-0.438,0.845l-0.233,0.67l-1.253-0.729v-0.35
			l0.248-0.437l0.527-0.845l0.187-0.438c-0.116-0.369-0.544-0.709-1.282-1.02l-0.991-0.408l-0.903-0.146
			c-0.272,0-0.462,0.01-0.568,0.029c-0.107,0.02-0.282,0.083-0.525,0.189c-0.243,0.107-0.529,0.316-0.859,0.627
			c-0.524,0.68-0.787,1.36-0.787,2.04c0,1.458,0.835,2.721,2.507,3.79l1.02,0.642l1.487,0.7l-0.729,1.224
			c-0.99,0-2.302-0.845-3.935-2.536c-1.186-1.244-1.777-2.555-1.777-3.935c0-1.185,0.397-2.152,1.194-2.9s1.826-1.123,3.09-1.123
			c0.175,0,0.379,0.005,0.612,0.015c0.233,0.01,0.524,0.084,0.874,0.222c0.485,0.119,0.923,0.336,1.312,0.651l0.787,0.622
			c0.175,0.119,0.272,0.247,0.292,0.385l0.262-0.208l0.233-0.178l0.554-0.386l0.408-0.267l0.67-0.297l0.729-0.237l0.291-0.06
			l0.379-0.059v1.341L312.685,30.843z"/>
		<path fill="#223D98" stroke="#2E3192" stroke-width="0.25" stroke-miterlimit="10" d="M326.18,25.655v13.817h-1.545v-8.833
			l-0.754,0.204l-0.898,0.438l-0.376,0.262l-0.406,0.379l-0.493,0.583l-0.435,0.7l-0.435,0.845l-0.232,0.67l-1.246-0.729v-0.35
			l0.248-0.437l0.527-0.845l0.187-0.438c-0.116-0.369-0.544-0.709-1.282-1.02l-0.991-0.408l-0.903-0.146
			c-0.272,0-0.462,0.01-0.568,0.029c-0.107,0.02-0.282,0.083-0.525,0.189c-0.243,0.107-0.529,0.316-0.859,0.627
			c-0.524,0.68-0.787,1.36-0.787,2.04c0,1.458,0.831,2.721,2.492,3.79l1.015,0.642l1.478,0.7l-0.726,1.224
			c-0.986,0-2.292-0.845-3.917-2.536c-1.18-1.244-1.77-2.555-1.77-3.935c0-1.185,0.396-2.152,1.191-2.9s1.822-1.123,3.082-1.123
			c0.174,0,0.378,0.005,0.61,0.015c0.232,0.01,0.523,0.084,0.872,0.222c0.484,0.119,0.921,0.336,1.309,0.651l0.785,0.622
			c0.174,0.119,0.271,0.247,0.291,0.385l0.262-0.208l0.232-0.178l0.553-0.386l0.406-0.268l0.669-0.238l0.728-0.208h0.29h0.378
			v-3.848h-13.815v-1.195h17.779v1.195H326.18z"/>
		<path fill="#223D98" stroke="#2E3192" stroke-width="0.25" stroke-miterlimit="10" d="M332.445,25.655v13.817h-1.544V25.655
			h-2.565v-1.195h2.244l0.029-0.117c0-0.469-0.784-1.603-2.352-3.401c-0.941-1.094-1.764-1.641-2.47-1.641
			c-0.627,0-1.117,0.243-1.47,0.729c-0.177,0.272-0.344,0.681-0.5,1.224v0.554c0,0.252,0.035,0.486,0.104,0.699
			c0.071,0.214,0.131,0.394,0.18,0.54c0.051,0.146,0.105,0.277,0.165,0.394l0.39,0.729l0.21,0.292l-1.729-0.029l-0.358-0.466
			l-0.298-0.583l-0.209-0.641v-0.67c0-0.292,0.01-0.505,0.029-0.641s0.098-0.398,0.233-0.787c0.563-1.652,1.641-2.478,3.232-2.478
			c0.681,0,1.399,0.263,2.156,0.787c0.912,0.622,1.679,1.409,2.301,2.361l0.845,1.312l1.049,1.836h2.775v1.195H332.445z"/>
	</g>
</g>
</svg>
